<?xml version="1.0" standalone="no"?>
<!DOCTYPE svg PUBLIC "-//W3C//DTD SVG 20010904//EN"
 "http://www.w3.org/TR/2001/REC-SVG-20010904/DTD/svg10.dtd">
<svg version="1.0" xmlns="http://www.w3.org/2000/svg"
 width="512.000000pt" height="512.000000pt" viewBox="0 0 512.000000 512.000000"
 preserveAspectRatio="xMidYMid meet">
<metadata>
Created by potrace 1.11, written by Peter Selinger 2001-2013
</metadata>
<g transform="translate(0.000000,512.000000) scale(0.100000,-0.100000)"
fill="#000000" stroke="none">
<path d="M2200 4528 c-195 -154 -382 -300 -414 -325 -33 -25 -64 -49 -70 -54
-38 -30 -104 -83 -386 -304 -173 -136 -328 -258 -345 -271 -396 -311 -696
-547 -722 -569 l-24 -20 3 -331 3 -332 153 119 c84 66 156 118 160 115 4 -3 9
-22 10 -42 3 -47 56 -160 83 -177 23 -14 24 -30 3 -48 -9 -8 -27 -30 -39 -49
-72 -115 -62 -260 27 -370 l32 -40 -26 -28 c-105 -112 -107 -305 -4 -414 30
-32 32 -41 10 -59 -49 -41 -87 -140 -86 -225 1 -64 34 -157 66 -183 37 -31 39
-49 7 -89 -73 -91 -94 -217 -53 -318 l21 -52 -292 0 c-161 0 -298 -1 -304 -1
-9 -1 -13 -23 -13 -75 l0 -75 2560 0 2560 0 0 75 c0 52 -4 74 -12 75 -7 0
-145 1 -305 1 -263 0 -313 4 -284 22 14 9 34 96 34 148 -1 71 -22 132 -65 189
-21 27 -38 51 -38 53 0 2 13 19 30 37 101 114 92 324 -18 422 -20 18 -20 18
10 50 62 67 89 158 77 253 -8 59 -42 134 -76 166 -29 27 -29 33 2 66 46 48 76
126 76 196 1 83 -15 133 -62 195 -22 28 -39 54 -39 58 0 3 9 13 20 23 32 27
80 131 80 172 0 20 4 39 8 42 7 4 75 -46 163 -118 10 -8 47 -37 83 -66 l66
-52 0 335 0 335 -157 124 c-86 67 -222 174 -302 237 -80 63 -212 167 -292 230
-81 64 -202 159 -269 211 -67 52 -130 102 -140 110 -9 8 -32 26 -50 40 -18 14
-82 63 -141 110 -59 47 -156 123 -216 170 -59 47 -115 90 -123 97 -8 6 -87 68
-175 137 -88 69 -196 154 -240 189 -44 35 -109 86 -145 114 l-65 51 -355 -280z"/>
</g>
</svg>
