<svg xmlns="http://www.w3.org/2000/svg" viewBox="0 0 1000 1005.51" height="1005.51" width="1000">
    <path fill="#756847" d="M236.496 735.783c32.813 29.446 87.138 25.523 119.753-1.528 45.064-37.372 24.423-105.94-30.173-119.351-38.682-9.501-71.169 24.462-64.481 60.503 4.104-2.514 8.253-4.93 12.489-7.113 19.205-9.922 57.198-22.808 68.365 5.526 7.882 20.004-3.922 40.945-23.816 47.169-24.034 7.522-53.143-9.758-62.173-32.213-12.605 8.645-24.34 18.966-35.413 29.549 4.641 6.516 9.834 12.423 15.449 17.458m28.7-48.583c14.062 32.43 81.814 35.816 69.344-8.56-6.869-24.433-42.182-8.953-55.939-2.62-5.028 2.316-9.92 4.977-14.691 7.898.396 1.098.815 2.19 1.286 3.282m332.948 69.814c12.995.049 34.125-12.96 24.944-31.342-4.018-8.048-12.253-13.824-20.558-16.485-16.224-5.201-34.977 6.386-47.804 14.498a286.654 286.654 0 0 0-6.543 4.279c14.216 15.218 30.657 28.98 49.961 29.05m-72.392-54.425c4.941 5.363 10.221 11.698 15.864 18.11 22.751-15.744 47.219-28.662 72.581-16.491 35.178 16.876 19.711 62.316-16.053 62.442-19.51.07-35.242-11.358-48.698-24.92-2.875-2.898-5.678-5.872-8.512-8.81-29.742 20.599-64.921 46.898-101.112 34.22-39.612-13.874-13.852-79.848 23.266-72.24 19.56 4.01 28.946 24.806 13.116 39.798-5.484 5.187-18.034 8.54-22.087-.593-5.001-11.255 11.314-8.096 7.304-3.287 6.132-2.616 13.238-3.978 14.96-11.44 1.252-5.432-1.196-11.156-6.021-13.805-8.927-4.905-25.166.998-31.624 7.767-19.691 20.657-6.745 48.208 21.358 47.926 14.323-.142 29.015-6.805 41.39-13.33 10.355-5.463 21.299-13.776 32.709-21.99-16.997-17.915-33.477-36.331-50.325-54.371-38.905-41.66-79.478-82.886-136.126-97.803-42.434-11.172-95.759-12.99-128.619 20.787-30.095 30.93-24.603 80.55-3.023 116.212 11.658-10.986 24.306-21.413 37.719-30.395-5.543-23.228 2.121-47.891 20.851-63.454 26.425-21.955 65.353-12.457 90.029 6.85 29.619 23.174 32.181 65.574 15.074 96.762-15.581 28.404-48.705 42.458-79.6 44.667-34.394 2.459-65.179-13.896-85.899-40.32a1308.598 1308.598 0 0 0-7.72 7.652c-26.857 26.797-68.001 57.11-94.454 13.579-16.461-27.094.06-60.812 32.554-55.404 21.303 3.547 44.941 29.603 26.801 49.375-14.394 15.688-53.025 2.933-46.464-20.92 3.899-14.176 29.437-13.392 29.362 2.13-.024 4.689-7.245 4.689-7.268 0-.025-5.21-17.356-11.907-14.434 5.932 1.504 9.215 12.795 11.076 19.794 11.4 17.886.825 21.409-16.552 11.496-28.301-6.742-7.986-17.679-11.96-27.827-12.447-29.065-1.401-22.374 37.257-10.886 51.96 24.498 31.359 65.4-13.927 83.796-32.237-19.885-30.155-27.185-75.008-11.064-107.8 16.919-34.426 49.596-49.382 86.5-52.347 106.64-8.56 175.832 74.07 241.292 145.136" />
    <path fill="#756847" d="M677.875 763.15c-23.567-16.085-19.486-51.505.68-68.057 24.977-20.498 57.455.744 59.38 29.76.79 11.966-10.016 22.68-20.808 25.32-10.551 2.581-19.568-7.102-24.201-15.183-10.365-18.079 11.734-32.05 13.275-15.723.502 5.328-7.847 5.304-8.314 0 .475 5.431 1.127 9.346 3.975 14.18 8.123 13.82 25.245 6.82 26.995-8.595 3.254-28.638-33.46-34.794-49.787-18.369-12.834 12.91-10.63 34.402.923 46.92 14.358 15.555 41.267 16.521 59.905 10.372 31.398-10.356 30.522-48.943 16.108-72.204-23.595-38.077-84.576-45.535-124.023-37.229-28.645 6.033-50.44 28.776-79.604 33.222-17.538 2.676-36.01-10.467-36.805-28.955-.467-10.879 9.778-25.55 21.924-20.472 11.429 4.775 14.56 26.418-1.666 25.983-3.505-.103-.36-9.68-3.346-11.514-5.914-3.64-8.828 4.475-7.941 8.68 1.694 8.035 8.4 14.144 15.812 16.94 10.929 4.124 25.289-2.926 34.837-7.459 18.563-8.813 34.327-19.712 54.402-25.08 42.372-11.33 98.56.637 128.749 33.697 18.517 20.274 23.212 52.396 7.745 75.556-19.196 28.75-62.915 25.48-88.215 8.21M83.41 576.558c10.582-11.076 20.903-22.807 29.548-35.411-22.454-9.035-39.734-38.14-32.212-62.178 6.223-19.89 27.166-31.7 47.17-23.812 28.332 11.163 15.447 49.156 5.526 68.365-2.186 4.232-4.6 8.38-7.114 12.49 36.041 6.687 70.004-25.803 60.503-64.485-13.412-54.597-81.98-75.235-119.352-30.175-27.05 32.62-30.973 86.94-1.527 119.755 5.035 5.613 10.942 10.808 17.458 15.45m34.406-42.864c2.922-4.771 5.582-9.66 7.898-14.692 6.335-13.758 21.813-49.07-2.62-55.935-44.375-12.474-40.99 55.278-8.56 69.34 1.092.475 2.187.89 3.282 1.287M73.77 249.419a287.828 287.828 0 0 0 4.28-6.54c8.112-12.826 19.7-31.58 14.497-47.806-2.66-8.306-8.436-16.537-16.484-20.56-18.38-9.175-31.39 11.95-31.343 24.946.072 19.307 13.832 35.749 29.05 49.96m170.511 263.728c-2.965 36.899-17.92 69.575-52.347 86.5-32.79 16.115-77.645 8.816-107.799-11.065-18.31 18.393-63.596 59.299-32.237 83.792 14.703 11.489 53.362 18.179 51.96-10.886-.488-10.143-4.463-21.085-12.446-27.823-11.75-9.917-29.127-6.39-28.304 11.493.326 6.998 2.186 18.289 11.403 19.797 17.838 2.919 11.14-14.41 5.93-14.438-4.687-.023-4.687-7.244 0-7.268 15.522-.075 16.306 25.463 2.13 29.362-23.853 6.56-36.608-32.07-20.918-46.46 19.77-18.143 45.827 5.495 49.374 26.797 5.407 32.495-28.31 49.02-55.404 32.554-43.532-26.453-13.219-67.594 13.58-94.45 2.533-2.542 5.09-5.115 7.651-7.72-26.425-20.725-42.779-51.505-40.32-85.9 2.208-30.894 16.262-64.022 44.666-79.6 31.188-17.106 73.588-14.544 96.762 15.076 19.308 24.676 28.805 63.599 6.85 90.028-15.563 18.73-40.226 26.394-63.452 20.847-8.983 13.417-19.41 26.065-30.396 37.72 35.661 21.58 85.281 27.076 116.211-3.02 33.777-32.86 31.96-86.185 20.788-128.62-14.916-56.651-56.144-97.221-97.803-136.125-18.04-16.852-36.457-33.328-54.37-50.324-8.215 11.41-16.529 22.348-21.992 32.708-6.525 12.37-13.187 27.067-13.33 41.385-.28 28.105 27.27 41.054 47.927 21.359 6.768-6.453 12.671-22.692 7.767-31.624-2.649-4.821-8.374-7.272-13.805-6.017-7.462 1.722-8.825 8.829-11.442 14.957 4.81-4.01 7.97 12.303-3.285 7.303-9.133-4.053-5.78-16.603-.594-22.082 14.992-15.835 35.788-6.448 39.798 13.112 7.61 37.122-58.365 62.879-72.24 23.266-12.676-36.192 13.621-71.371 34.22-101.11-2.938-2.838-5.91-5.636-8.809-8.514-13.562-13.456-24.99-29.188-24.92-48.698.126-35.761 45.565-51.228 62.442-16.053 12.17 25.365-.748 49.83-16.492 72.582 6.413 5.64 12.747 10.922 18.111 15.862 71.065 65.464 153.695 134.652 145.135 241.297" />
    <path fill="#756847" d="M38.584 119.73c16.085 23.568 51.505 19.483 68.057-.68 20.498-24.98-.744-57.454-29.759-59.378-11.967-.796-22.679 10.015-25.32 20.808-2.58 10.55 7.101 19.565 15.182 24.197 18.08 10.363 32.051-11.735 15.724-13.275-5.328-.503-5.304 7.85 0 8.314-5.43-.476-9.347-1.128-14.18-3.972-13.82-8.123-6.822-25.245 8.594-27 28.64-3.253 34.794 33.462 18.37 49.792-12.91 12.83-34.403 10.625-46.92-.927C32.776 103.25 31.81 76.342 37.958 57.704 48.315 26.306 86.902 27.186 110.164 41.6c38.076 23.59 45.535 84.576 37.23 124.023-6.034 28.642-28.778 50.435-33.223 79.604-2.677 17.538 10.467 36.005 28.954 36.8 10.88.468 25.551-9.773 20.472-21.923-4.775-11.428-26.418-14.557-25.98 1.667.101 3.503 9.678.364 11.511 3.345 3.642 5.919-4.474 8.833-8.678 7.946-8.037-1.695-14.145-8.405-16.94-15.815-4.126-10.931 2.925-25.286 7.458-34.84 8.812-18.558 19.711-34.326 25.08-54.401 11.33-42.368-.638-98.56-33.698-128.75-20.274-18.512-52.396-23.211-75.556-7.744-28.748 19.2-25.478 62.914-8.21 88.219" />
</svg>