<svg xmlns="http://www.w3.org/2000/svg" viewBox="0 0 76.796 6.922" height="26.161" width="290.254">
  <path fill="#a29061" d="M40.736 3.439c-.181.099-.356.204-.527.306l-.075.044c-.082.05-.165.104-.248.158-.35-.212-.67-.398-.974-.565.325-.151.656-.29.992-.417.296.157.573.314.832.474M38.293 5.1c-.122-.101-.245-.19-.351-.27a9.645 9.645 0 0 0-.768-.488l.145-.09.112-.07c.312-.195.636-.378.968-.549.331.171.656.354.97.549l.083.054c-.391.274-.778.569-1.159.864m.222 1.236a.222.222 0 0 1-.18.08c-.079 0-.181-.035-.226-.131-.036-.078-.06-.252.176-.56.12.131.201.262.245.397.028.087.022.161-.015.214m-1.812-2.263l-.039-.022-.179-.102a5.858 5.858 0 0 1-.547-.353c.422-.185.803-.372 1.144-.562.273.107.541.224.807.348-.43.236-.826.47-1.186.69m1.665-1.945c.24.218.565.365.854.498.04.017.076.035.114.053-.093.04-.188.077-.28.119-.227.102-.445.208-.657.315a16.634 16.634 0 0 0-.656-.315c-.05-.024-.106-.044-.158-.066.306-.199.569-.4.783-.604M37.957.811V.773a.39.39 0 0 1 .377-.34c.078 0 .15.028.206.08.234.212.016.697-.12.962a4.28 4.28 0 0 0-.088-.11c-.122-.152-.375-.466-.375-.554m3.903 2.724c.124-.04.263-.087.373-.087.109 0 .165.044.189.15.01.043-.004.061-.01.068-.026.032-.095.05-.189.05-.163 0-.358-.057-.43-.113l-.055-.028a2.42 2.42 0 0 0 .121-.04m-7.268.012l-.033.001c-.223 0-.503-.096-.592-.31-.014-.03-.013-.045-.01-.05 0 0 .016-.021.103-.021.226 0 .633.142.673.162.08.053.158.106.237.163-.135.032-.26.05-.378.055m41.897-.903c-.174-.16-.738-.46-1.137-.46-.3 0-.405.164-.44.302a.201.201 0 0 0 .035.18.23.23 0 0 0 .18.087c.081 0 .148-.04.183-.11.079.003.243.018.26.02.37.08.633.307.706.604.07.291-.057.597-.352.84-.574.475-1.347.667-2.026.81-1.946.41-3.808.569-5.554.474-3.461-.185-6.876-1.047-10.178-1.883-.705-.179-1.41-.356-2.118-.529-3.18-.776-6.569-1.532-9.952-1.532-.593 0-1.178.023-1.742.07-1.671.14-3.139.45-4.46.94l-.192-.083c-.35-.147-.783-.329-1.034-.572.313-.39.444-.782.389-1.164A.729.729 0 0 0 38.319 0a.803.803 0 0 0-.502.18c-.218.178-.325.39-.321.629.007.313.218.661.568.942a5.796 5.796 0 0 1-1.032.754c-1.354-.518-2.863-.843-4.59-.988a21.039 21.039 0 0 0-1.74-.07c-3.383 0-6.771.756-9.953 1.532-.706.173-1.413.352-2.118.53-3.302.835-6.717 1.697-10.178 1.882-1.745.095-3.608-.065-5.554-.473-.678-.144-1.451-.336-2.024-.81-.295-.244-.425-.55-.353-.84.072-.298.336-.524.704-.604.018-.003.174-.017.26-.021a.2.2 0 0 0 .184.11c.07 0 .14-.033.182-.087a.2.2 0 0 0 .034-.18c-.036-.138-.14-.302-.44-.302-.4 0-.963.3-1.136.462-.244.229-.345.501-.3.81.093.617.768 1.209 1.219 1.43 1.157.574 2.604.74 3.882.885l.231.028c.637.073 1.312.11 2.007.11 1.266 0 2.629-.117 4.29-.37 2.428-.366 4.92-1.008 7.33-1.631 3.805-.981 7.741-1.997 11.629-1.997 1.776 0 3.406.206 4.983.627.303.082.605.175.904.279-.027.013-.056.03-.082.044l-.077.042c-.244.131-.518.279-.798.397a6.29 6.29 0 0 0-.565-.366c-.158-.09-.474-.24-.8-.24a.772.772 0 0 0-.483.152.438.438 0 0 0-.172.318.614.614 0 0 0 .154.455c.23.252.524.38.88.38.246 0 .523-.06.866-.186.155.113.306.223.469.324.12.073.24.142.36.212-.768.438-1.49.717-2.336.717h-.032c-.143 0-.22.111-.225.22 0 .114.073.233.222.24 1.067.044 1.98-.387 2.843-.9.37.214.748.437 1.098.692l.123.09c-.328.347-.415.721-.238 1.04.125.229.395.474.685.474a.532.532 0 0 0 .423-.225c.304-.39.25-.816-.157-1.269l.16-.096c.104-.061.212-.124.314-.195.2-.139.395-.292.582-.438.073-.058.148-.116.222-.172.911.554 1.869 1.046 3.01.999.147-.007.223-.126.22-.24-.003-.109-.08-.22-.224-.22h-.03c-.93 0-1.704-.335-2.557-.845.077-.051.155-.1.235-.148.181-.107.385-.228.596-.33a2.5 2.5 0 0 0 .612.354c.176.065.364.1.53.1.342 0 .58-.144.688-.419.079-.2.07-.372-.023-.51-.178-.26-.583-.29-.755-.29-.331 0-.678.081-1.064.25l-.254-.172c-.143-.097-.29-.195-.44-.29.249-.083.5-.16.75-.228 1.578-.421 3.207-.627 4.983-.627 3.888 0 7.823 1.016 11.63 1.997 2.41.622 4.901 1.265 7.33 1.632 1.661.252 3.024.369 4.29.369.695 0 1.37-.037 2.006-.11l.233-.028c1.276-.146 2.724-.311 3.881-.883.45-.223 1.126-.815 1.217-1.432.047-.309-.053-.581-.297-.812" />
</svg>