<svg height="512pt" viewBox="0 -34 512.004 512" width="512pt" xmlns="http://www.w3.org/2000/svg">
  <path d="M85.332 401.07c-1.773 0-3.531-.093-5.246-.273-14.149-1.504-26.41-9.711-32.82-21.965-6.196-11.844-6.082-25.883.3-37.531l30.293-55.27c2.993-5.469 11.973-5.469 14.965 0l30.293 55.27c6.383 11.648 6.496 25.687.301 37.531-6.41 12.254-18.68 20.461-32.813 21.965-1.738.18-3.496.273-5.273.273zm0-93.175L62.523 349.5c-3.687 6.734-3.746 14.543-.144 21.422 3.812 7.285 10.922 11.988 19.488 12.902 2.262.238 4.66.238 6.938 0 8.562-.906 15.668-5.61 19.484-12.902 3.602-6.879 3.54-14.688-.144-21.422zm0 0"/>
  <path d="M85.332 443.734a8.532 8.532 0 0 1-8.531-8.53v-68.27c0-4.707 3.82-8.532 8.531-8.532s8.535 3.825 8.535 8.532v68.27c0 4.71-3.824 8.53-8.535 8.53zm0 0M426.668 401.07c-1.777 0-3.535-.093-5.25-.273-14.148-1.504-26.41-9.711-32.82-21.965-6.196-11.844-6.082-25.883.3-37.531l30.293-55.27c2.997-5.469 11.973-5.469 14.97 0l30.292 55.27c6.383 11.648 6.492 25.687.297 37.531-6.406 12.254-18.68 20.461-32.809 21.965-1.742.18-3.5.273-5.273.273zm0-93.175L403.855 349.5c-3.683 6.734-3.746 14.543-.144 21.422 3.816 7.285 10.922 11.988 19.492 12.902 2.262.238 4.66.238 6.938 0 8.558-.906 15.668-5.61 19.48-12.902 3.602-6.879 3.543-14.688-.144-21.422zm0 0"/>
  <path d="M426.668 443.734c-4.711 0-8.535-3.82-8.535-8.53v-68.27c0-4.707 3.824-8.532 8.535-8.532 4.71 0 8.531 3.825 8.531 8.532v68.27c0 4.71-3.82 8.53-8.531 8.53zm0 0M187.734 418.137c-1.777 0-3.535-.094-5.25-.274-14.148-1.504-26.41-9.71-32.816-21.965-6.195-11.843-6.086-25.882.297-37.53l30.293-55.27c2.996-5.47 11.972-5.47 14.969 0l30.293 55.27c6.382 11.648 6.492 25.687.296 37.53-6.406 12.254-18.68 20.461-32.808 21.965-1.742.18-3.5.274-5.274.274zm0-93.176l-22.812 41.61c-3.684 6.73-3.746 14.538-.145 21.417 3.817 7.285 10.926 11.989 19.493 12.903 2.261.238 4.66.238 6.937 0 8.559-.907 15.668-5.61 19.48-12.903 3.602-6.879 3.543-14.687-.144-21.418zm0 0"/>
  <path d="M187.734 443.734c-4.71 0-8.535-3.82-8.535-8.53v-51.2c0-4.711 3.824-8.535 8.535-8.535s8.532 3.824 8.532 8.535v51.2c0 4.71-3.82 8.53-8.532 8.53zm0 0M162.133 290.137a8.515 8.515 0 0 1-6.031-2.5l-23.63-23.63a8.53 8.53 0 0 1-.847-11.077l57.766-78.77c3.214-4.387 10.547-4.387 13.761 0l69.48 94.746a8.511 8.511 0 0 1 1.192 7.805 8.519 8.519 0 0 1-5.722 5.445l-26.813 7.656a8.498 8.498 0 0 1-5.512-.28l-39.109-15.645-30.703 15.351a8.76 8.76 0 0 1-3.832.899zm34.133-34.133c1.078 0 2.152.203 3.168.605l39.96 15.98 12.22-3.487-55.348-75.47-46.547 63.481 14.105 14.106 28.63-14.32a8.513 8.513 0 0 1 3.812-.895zm0 0M315.734 221.867a8.521 8.521 0 0 1-6.035-2.5l-18.234-18.234-11.29 16.937c-3.167 4.754-11.034 4.754-14.198 0l-20.395-30.582a8.523 8.523 0 0 1 .059-9.55l37.46-54.75a8.545 8.545 0 0 1 7.016-3.72c2.918-.394 5.434 1.356 7.04 3.669l49.066 70.664a8.532 8.532 0 0 1 1.347 6.582 8.557 8.557 0 0 1-3.832 5.52l-23.465 14.667a8.61 8.61 0 0 1-4.539 1.297zm-25.601-42.664c2.254 0 4.43.887 6.035 2.5l20.8 20.805 10.122-6.324-36.899-53.145-27.21 39.774 10.085 15.136 9.97-14.949a8.478 8.478 0 0 1 6.253-3.754c.281-.035.563-.043.844-.043zm0 0"/>
  <path d="M503.465 443.734H384a8.523 8.523 0 0 1-6.879-3.488l-157.3-214.496a8.524 8.524 0 0 1-.165-9.863l63.43-92.707a8.543 8.543 0 0 1 7.012-3.72c2.922-.394 5.437 1.356 7.043 3.669L423.117 304.53a8.54 8.54 0 0 1 .477 8.969l-19.727 36c-3.687 6.734-3.738 14.543-.148 21.422 3.816 7.285 10.914 11.988 19.492 12.902 2.254.238 4.66.238 6.93 0 9.597-1.015 17.535-7.058 20.71-15.77a8.516 8.516 0 0 1 6.919-5.538 8.56 8.56 0 0 1 8.109 3.593l44.601 64.23a8.544 8.544 0 0 1 .555 8.821 8.56 8.56 0 0 1-7.57 4.574zm-115.137-17.066h98.824l-27.777-40.004c-6.793 7.832-16.488 12.961-27.453 14.121a51.38 51.38 0 0 1-10.512 0c-14.14-1.5-26.41-9.71-32.82-21.96-6.195-11.848-6.082-25.876.3-37.532l17.196-31.367-115.902-166.887-53.024 77.5zm0 0"/>
  <path d="M384 443.734H8.535a8.53 8.53 0 0 1-6.879-13.574l45.508-62.055c1.793-2.449 4.762-3.714 7.773-3.44a8.55 8.55 0 0 1 6.887 4.983c3.567 7.93 11.059 13.227 20.043 14.176 2.254.238 4.66.238 6.93 0 8.57-.906 15.668-5.61 19.484-12.894 3.598-6.88 3.547-14.688-.148-21.418l-17.637-32.18a8.527 8.527 0 0 1 .606-9.148l98.277-134.024c3.219-4.387 10.547-4.387 13.766 0l187.734 256a8.533 8.533 0 0 1 .734 8.899 8.534 8.534 0 0 1-7.613 4.675zM25.371 426.668h341.785l-170.89-233.035-88.184 120.25 15.027 27.418c6.383 11.656 6.496 25.687.301 37.531-6.41 12.254-18.68 20.453-32.812 21.953a51.38 51.38 0 0 1-10.512 0c-10.367-1.098-19.574-5.7-26.3-12.86zm0 0M230.398 102.402c-4.707 0-8.53-3.824-8.53-8.535 0-9.41-7.657-17.066-17.067-17.066-4.711 0-8.535-3.82-8.535-8.531s3.824-8.536 8.535-8.536c9.078 0 17.34 3.567 23.465 9.371 8.738-15.753 25.55-26.437 44.8-26.437 4.711 0 8.536 3.824 8.536 8.535s-3.825 8.531-8.536 8.531c-18.824 0-34.132 15.309-34.132 34.133 0 4.711-3.825 8.535-8.536 8.535zm0 0M477.867 93.867h-85.332c-18.828 0-34.137-15.308-34.137-34.133 0-19.976 17.606-36.043 37.618-33.945C402.645 10.445 417.953.004 435.199.004s32.555 10.441 39.188 25.785C494.422 23.7 512 39.758 512 59.734c0 18.825-15.309 34.133-34.133 34.133zm-85.332-51.199c-9.414 0-17.07 7.656-17.07 17.066 0 9.414 7.656 17.067 17.07 17.067h85.332c9.41 0 17.067-7.653 17.067-17.067 0-11.406-11.418-20.418-23.204-15.863a8.57 8.57 0 0 1-7.183-.476 8.543 8.543 0 0 1-4.266-5.805c-2.383-11.887-12.93-20.52-25.082-20.52-12.152 0-22.699 8.633-25.086 20.52a8.537 8.537 0 0 1-4.27 5.805 8.569 8.569 0 0 1-7.183.476c-2.055-.8-4.12-1.203-6.125-1.203zm0 0M119.465 162.137H34.133C15.309 162.137 0 146.828 0 128.004c0-19.977 17.598-36.082 37.613-33.95 6.633-15.34 21.942-25.784 39.188-25.784 17.246 0 32.554 10.445 39.183 25.785 20.028-2.133 37.618 13.972 37.618 33.949 0 18.824-15.309 34.133-34.137 34.133zm-85.332-51.203c-9.41 0-17.067 7.656-17.067 17.07 0 9.41 7.657 17.066 17.067 17.066h85.332c9.414 0 17.07-7.656 17.07-17.066 0-11.418-11.418-20.414-23.203-15.867a8.607 8.607 0 0 1-7.187-.477 8.568 8.568 0 0 1-4.266-5.8C99.5 93.972 88.953 85.335 76.8 85.335c-12.153 0-22.7 8.637-25.09 20.523a8.522 8.522 0 0 1-4.266 5.801 8.542 8.542 0 0 1-7.183.477c-2.059-.801-4.125-1.203-6.13-1.203zm0 0"/>
</svg>