<svg xmlns="http://www.w3.org/2000/svg" viewBox="0 0 512 512">
  <path d="M506.264 414.938a7.758 7.758 0 0 0-1.544-.248 7.652 7.652 0 0 0-3.655.69 7.702 7.702 0 0 0-4.247 5.033l-.001.003c-2.795 10.496-13.605 16.761-24.104 13.968L340.329 399.15c2.059-.917 3.71-2.7 4.334-5.046a7.722 7.722 0 0 0-5.475-9.446l-36.752-9.782.591-2.219a7.722 7.722 0 0 0-2.117-7.557l-22.735-21.807 17.979-27.827a7.718 7.718 0 0 0-3.561-11.334l-1.867-.764 34.781-54.977c9.328-14.742 5.578-34.323-8.536-44.578l-23.962-17.409 34.916 12.89 9.472 58.941a7.721 7.721 0 0 0 8.658 6.425l82.706-11.198a7.728 7.728 0 0 0 1.708-.442l24.487-3.609a7.718 7.718 0 0 0 6.334-5.652l8.912-33.486a7.72 7.72 0 0 0-8.61-9.62l-22.288 3.357a7.705 7.705 0 0 0-2.237-1.293l-62.172-22.952-1.405-13.773 45.518-1.918a7.716 7.716 0 0 0 6.512-4.128l19.816-37.807a7.715 7.715 0 0 0 5.24-4.061c12.766-25.325 2.716-56.641-22.404-69.808-25.527-13.38-57.182-3.496-70.561 22.03a52.107 52.107 0 0 0-4.213 37.706 52.79 52.79 0 0 0 1.411 4.472c-34.21-12.958-66.675-18.391-96.617-16.106-22.519 1.718-43.113 7.668-61.282 17.686l-81.93-30.247a7.717 7.717 0 0 0-10.133 5.256L99.9 107.653a7.719 7.719 0 0 0 4.786 9.227l57.162 21.103a45.892 45.892 0 0 0-17.569 26.513c-5.691 24.012 9.436 48.805 33.722 55.268l63.133 16.804-23.4 41.62a9.362 9.362 0 0 0-.713.025 7.72 7.72 0 0 0-6.984 5.72l-16.492 61.961-22.561-6.005a7.718 7.718 0 0 0-8.227 11.998L14.819 312.511a7.721 7.721 0 0 0-9.446 5.474L.261 337.192a7.722 7.722 0 0 0 5.474 9.446L463.63 468.512a35.023 35.023 0 0 0 9.03 1.186c15.536-.001 29.785-10.399 33.966-26.105l5.112-19.207a7.72 7.72 0 0 0-5.474-9.448zm-54.007-197.262l-4.578 17.202-13.701 2.019-2.86-16.037 21.139-3.184zM283.561 369.851l-45.316-12.061-4.228-1.125 14.307-53.752c7.095 2.793 18.369 7.338 29.811 11.994l-16.384 25.358a7.72 7.72 0 0 0 1.14 9.761l20.67 19.825zm124.995-161.2l-7.458 1.201-24.036-8.873-.419-4.109 31.913 11.781zm5.36-59.811l-41.992 1.769-1.635-16.037a52.051 52.051 0 0 0 5.268 3.897 7.698 7.698 0 0 0 4.18 1.231 7.708 7.708 0 0 0 5.513-2.314l24.366-24.836 20.185 5.987-15.885 30.303zM371.29 77.469c6.576-12.545 19.414-19.728 32.683-19.728a36.602 36.602 0 0 1 17.036 4.203c15.784 8.273 23.124 26.714 18.148 43.263l-29.606-8.782a7.723 7.723 0 0 0-7.705 1.995l-22.849 23.289c-12.206-11.096-15.635-29.114-7.707-44.24zm-17.112 51.307l9.632 94.444a7.716 7.716 0 0 0 2.979 5.34 7.713 7.713 0 0 0 5.929 1.499l28.758-4.631.031-.005 9.834-1.583 4.505-.678 2.852 15.989-8.019 1.182-59.232 8.02-8.97-55.818-.008-.054-4.591-28.568a7.71 7.71 0 0 0-8.848-6.397 7.692 7.692 0 0 0-5.221 3.391l-106.652-39.374c27.277-11.022 72.807-18.338 137.021 7.243zm-237.545-23.943l.959-3.6 77.357 28.558.017.006 129.473 47.798.675 4.203-208.481-76.965zm65.349 100.013c-16.284-4.332-26.454-20.835-22.673-36.787 2.406-10.156 9.716-18.308 19.552-21.805a7.692 7.692 0 0 0 2.162-1.192l61.13 22.568a7.677 7.677 0 0 0 2.216 2.52l63.529 46.154c7.546 5.483 9.55 15.952 4.564 23.833l-36.256 57.308a2274.936 2274.936 0 0 0-18.107-7.296l22.174-39.436a15.142 15.142 0 0 0 .757-13.392 15.14 15.14 0 0 0-10.123-8.804l-88.925-23.671zm72.742 39.067a15.373 15.373 0 0 0 1.39-3.357l10.572 2.814-23.404 41.628a6.853 6.853 0 0 0-.709.017 7.706 7.706 0 0 0-3.473 1.075 1172.846 1172.846 0 0 0-6.565-2.711l22.189-39.466zm-31.944 52.194a1081.82 1081.82 0 0 1 10.263 4.192l-13.946 52.395-10.626-2.828 14.309-53.759zM467.6 453.592L17.167 333.703l1.141-4.288 450.434 119.888a34.91 34.91 0 0 0 16.55.365c-4.747 3.955-11.275 5.629-17.692 3.924z"/>
</svg>