<svg aria-hidden="true" style="position: absolute; width: 0; height: 0; overflow: hidden;" version="1.1" xmlns="http://www.w3.org/2000/svg" xmlns:xlink="http://www.w3.org/1999/xlink">
  <defs>
    <symbol id="icon-phone" viewBox="0 0 24 24">
      <path fill="currentColor" d="M6.609 10.781c1.453 2.813 3.797 5.156 6.609 6.609l2.203-2.203c0.281-0.281 0.703-0.375 1.031-0.234 1.125 0.375 2.344 0.563 3.563 0.563 0.563 0 0.984 0.422 0.984 0.984v3.516c0 0.563-0.422 0.984-0.984 0.984-9.375 0-17.016-7.641-17.016-17.016 0-0.563 0.422-0.984 0.984-0.984h3.516c0.563 0 0.984 0.422 0.984 0.984 0 1.266 0.188 2.438 0.563 3.563 0.094 0.328 0.047 0.75-0.234 1.031z"></path>
    </symbol>
    <symbol id="icon-email" viewBox="0 0 24 24">
      <path fill="currentColor" d="M12 11.016l8.016-5.016h-16.031zM20.016 18v-9.984l-8.016 4.969-8.016-4.969v9.984h16.031zM20.016 3.984c1.078 0 1.969 0.938 1.969 2.016v12c0 1.078-0.891 2.016-1.969 2.016h-16.031c-1.078 0-1.969-0.938-1.969-2.016v-12c0-1.078 0.891-2.016 1.969-2.016h16.031z"></path>
    </symbol>
    <symbol id="icon-menu" viewBox="0 0 24 24">
      <path fill="currentColor" d="M3 6h18v2.016h-18v-2.016zM3 12.984v-1.969h18v1.969h-18zM3 18v-2.016h18v2.016h-18z"></path>
    </symbol>
    <symbol id="icon-close" viewBox="0 0 24 24">
      <path fill="currentColor" d="M18.984 6.422l-5.578 5.578 5.578 5.578-1.406 1.406-5.578-5.578-5.578 5.578-1.406-1.406 5.578-5.578-5.578-5.578 1.406-1.406 5.578 5.578 5.578-5.578z"></path>
    </symbol>
    <symbol id="icon-wifi" viewBox="0 0 32.984 32.984">
      <path fill="currentColor" d="M16.492 18.672c-1.202 0-2.18-.979-2.18-2.181s.978-2.18 2.18-2.18 2.18.978 2.18 2.18-.979 2.181-2.18 2.181zm0-3.36a1.182 1.182 0 0 0 0 2.361 1.181 1.181 0 0 0 0-2.361zM11.821 21.662a.502.502 0 0 1-.354-.146 7.057 7.057 0 0 1-2.081-5.023c0-1.898.739-3.683 2.081-5.024a.5.5 0 0 1 .707.707 6.067 6.067 0 0 0-1.788 4.317c0 1.63.635 3.163 1.788 4.316a.5.5 0 0 1-.353.853zM8.5 24.984a.502.502 0 0 1-.354-.146 11.724 11.724 0 0 1-3.457-8.346 11.73 11.73 0 0 1 3.457-8.346.5.5 0 0 1 .707.707c-2.041 2.04-3.164 4.753-3.164 7.639s1.124 5.599 3.164 7.639a.5.5 0 0 1-.353.853z"/>
      <path fill="currentColor" d="M5.178 28.306a.502.502 0 0 1-.354-.146c-6.433-6.434-6.433-16.901 0-23.335a.5.5 0 0 1 .707.707c-6.043 6.044-6.043 15.877 0 21.921a.5.5 0 0 1-.353.853zM21.163 21.662a.5.5 0 0 1-.354-.853 6.066 6.066 0 0 0 1.788-4.316 6.065 6.065 0 0 0-1.788-4.317.5.5 0 0 1 .707-.707 7.058 7.058 0 0 1 2.081 5.024 7.056 7.056 0 0 1-2.081 5.023.498.498 0 0 1-.353.146zM24.484 24.984a.5.5 0 0 1-.354-.853c2.041-2.04 3.164-4.753 3.164-7.639s-1.124-5.599-3.164-7.639a.5.5 0 0 1 .707-.707 11.726 11.726 0 0 1 3.457 8.346c0 3.153-1.228 6.117-3.457 8.346a.498.498 0 0 1-.353.146z"/>
      <path fill="currentColor" d="M27.806 28.306a.5.5 0 0 1-.354-.853c6.042-6.044 6.042-15.877 0-21.921a.5.5 0 0 1 .707-.707c6.433 6.434 6.433 16.901 0 23.335a.498.498 0 0 1-.353.146z"/>
    </symbol>
    <symbol id="icon-trekking" viewBox="0 0 512 512">
      <path fill="currentColor" d="M166.526 247.467v17.067c0 9.412-7.654 17.067-17.067 17.067h-25.6c-9.412 0-17.067-7.654-17.067-17.067v-128c0-9.412 7.654-17.067 17.067-17.067h25.6c7.006 0 13.295 4.292 15.855 10.761l1.314 7.74 16.828-2.859-1.451-8.533a8.853 8.853 0 0 0-.367-1.417c-4.804-13.619-17.741-22.758-32.179-22.758H123.85c-18.825 0-34.133 15.309-34.133 34.133v128c0 18.825 15.309 34.133 34.133 34.133h25.6c18.825 0 34.133-15.309 34.142-34.133v-17.067h-17.066z"/>
      <path fill="currentColor" d="M136.651 25.6c-25.882 0-46.933 21.052-46.933 46.933s21.052 46.933 46.933 46.933 46.933-21.052 46.933-46.933S162.533 25.6 136.651 25.6zm0 76.8c-16.469 0-29.867-13.397-29.867-29.867 0-16.469 13.397-29.867 29.867-29.867 16.469 0 29.867 13.397 29.867 29.867S153.12 102.4 136.651 102.4zM98.251 179.2H79.478c-13.175 0-23.893 10.718-23.893 23.893v37.547c0 13.175 10.718 23.893 23.893 23.893h18.773a8.53 8.53 0 0 0 8.533-8.533v-68.267a8.536 8.536 0 0 0-8.533-8.533zm-8.533 68.267h-10.24c-3.763 0-6.827-3.063-6.827-6.827v-37.547c0-3.763 3.063-6.827 6.827-6.827h10.24v51.201zM243.318 102.4h-34.133v17.067h34.133c14.114 0 25.6 11.486 25.6 25.6v145.067h-85.333V230.4h-17.067v68.267a8.53 8.53 0 0 0 8.533 8.533h102.4a8.525 8.525 0 0 0 8.533-8.533v-153.6c0-23.527-19.14-42.667-42.666-42.667z"/>
      <path fill="currentColor" d="M276.052 31.889l-16.469 4.489c.555 2.031.828 4.122.811 6.289V76.8c0 14.114-11.486 25.6-25.6 25.6s-25.6-11.486-25.6-25.6V42.59c-.017-2.108.256-4.19.802-6.204l-16.461-4.514a39.416 39.416 0 0 0-1.417 10.795V76.8c0 23.526 19.14 42.667 42.667 42.667 23.526 0 42.667-19.14 42.675-42.667V42.743a39.92 39.92 0 0 0-1.408-10.854z"/>
      <path fill="currentColor" d="M285.984 0h-59.733c-18.825 0-34.133 15.309-34.133 34.133v34.133a8.548 8.548 0 0 0 5.265 7.885 8.535 8.535 0 0 0 9.301-1.852l31.633-31.633h22.067c18.825 0 34.133-15.309 34.133-34.133A8.53 8.53 0 0 0 285.984 0zm-25.6 25.6h-25.6a8.526 8.526 0 0 0-6.033 2.5l-19.567 19.567V34.133c0-9.412 7.654-17.067 17.067-17.067h48.905c-2.944 5.095-8.465 8.534-14.772 8.534zM361.88 448.444l-76.8-153.6-15.266 7.637L342.8 448.444l-19.243 9.617-68.105-120.747c-4.241-7.953-12.493-12.954-21.606-13.047-13.602 0-24.661 11.059-24.661 24.661v37.837a25.577 25.577 0 0 1-15.761 23.501L119.38 441.31l-9.506-19.004 68.642-30.507a8.535 8.535 0 0 0 5.069-7.799v-85.333h-17.067v79.795l-71.731 31.872a8.54 8.54 0 0 0-4.565 4.915 8.55 8.55 0 0 0 .401 6.699l17.067 34.133c2.005 4.019 6.767 5.777 10.931 4.053l81.391-34.125c15.846-6.613 26.146-21.973 26.24-39.194v-37.888c0-4.19 3.405-7.595 7.509-7.595 2.79.026 5.325 1.562 6.733 4.19l72.192 128a8.547 8.547 0 0 0 7.441 4.343c1.289 0 2.586-.29 3.806-.905l34.133-17.067c4.215-2.105 5.922-7.234 3.814-11.449z"/>
      <path fill="currentColor" d="M136.165 474.991l-30.293-60.672a8.526 8.526 0 0 0-4.932-4.284 8.443 8.443 0 0 0-6.519.461l-34.133 17.067a8.559 8.559 0 0 0-4.275 4.932 8.547 8.547 0 0 0 .469 6.528l29.44 58.778C90.281 506.556 99.053 512 108.832 512h4.437c9.779 0 18.569-5.453 22.903-14.216 3.551-7.134 3.551-15.651-.007-22.793zm-15.258 15.206a8.485 8.485 0 0 1-7.637 4.736h-4.437a8.482 8.482 0 0 1-7.629-4.736c0-.009-.008-.017-.008-.034l-25.617-51.149 18.859-9.438 26.47 53.026a8.554 8.554 0 0 1-.001 7.595zM404.538 448.427c-6.827-13.577-23.432-19.123-37.043-12.331l-51.2 25.6c-4.215 2.108-5.922 7.236-3.814 11.452l17.067 34.133a8.54 8.54 0 0 0 7.646 4.719c1.289 0 2.586-.29 3.806-.905l51.2-25.6s.009-.009.017-.009c13.567-6.817 19.105-23.423 12.321-37.059zm-19.977 21.802l-43.563 21.786-9.429-18.867 43.546-21.777c5.197-2.594 11.563-.469 14.157 4.693 2.585 5.197.469 11.546-4.711 14.165zM136.651 59.733c-7.057 0-12.8 5.743-12.8 12.8s5.743 12.8 12.8 12.8 12.8-5.743 12.8-12.8-5.743-12.8-12.8-12.8zm0 17.067a4.268 4.268 0 0 1-4.267-4.267 4.268 4.268 0 0 1 4.267-4.267 4.268 4.268 0 0 1 4.267 4.267 4.268 4.268 0 0 1-4.267 4.267zM401.449 159.224a31.134 31.134 0 0 0-2.833-3.251c-5.589-5.555-12.988-8.602-20.864-8.602h-.111c-7.902.026-15.334 3.132-20.881 8.721l-36.062 36.062-36.685-44.023-13.116 10.923 42.667 51.2a8.566 8.566 0 0 0 6.178 3.063c2.381.094 4.727-.794 6.417-2.492l42.692-42.684a12.438 12.438 0 0 1 8.858-3.703h.043c3.328 0 6.477 1.289 8.832 3.635.435.435.853.905 1.212 1.391 3.738 5.001 3.243 12.092-1.169 16.503l-42.197 42.197c-6.758 6.844-16.137 10.769-25.779 10.769h-.102c-12.194 0-23.484-6.067-30.285-16.307l-3.755-5.547-14.131 9.574 3.712 5.47c9.906 14.96 26.512 23.877 44.432 23.877h.137c14.165 0 27.981-5.777 37.88-15.812l42.155-42.155c10.367-10.376 11.553-27.059 2.755-38.809zM259.07 233.626c-1.596-7.791-6.127-14.498-12.484-18.697l-47.582-34.219 38.511-23.509c.102-.051.196-.119.29-.179a26.67 26.67 0 0 0 1.562-1.118c6.289-4.838 10.308-11.836 11.332-19.703 1.016-7.868-1.084-15.659-5.845-21.845-9.472-12.706-27.238-15.753-40.192-7.083l-62.848 39.219a40.263 40.263 0 0 0-17.963 33.621c-.017 13.56 6.69 26.138 17.775 33.528l71.697 50.731a29.603 29.603 0 0 0 16.538 5.035c9.097 0 18.048-4.156 23.859-11.964.367-.486.708-.964 1.015-1.434 4.386-6.639 5.931-14.592 4.335-22.383zm-19.003 13.602c-4.045 5.427-11.631 6.733-17.075 3.089l-71.706-50.739a23.264 23.264 0 0 1-10.368-19.456c-.017-7.825 3.857-15.078 10.146-19.285l62.865-39.228a12.642 12.642 0 0 1 7.04-2.142c3.9 0 7.757 1.801 10.291 5.205a12.551 12.551 0 0 1 2.517 9.336 12.516 12.516 0 0 1-4.796 8.354l-49.843 30.49a8.531 8.531 0 0 0-4.087 6.963 8.562 8.562 0 0 0 3.55 7.253l58.308 41.924a12.644 12.644 0 0 1 5.453 8.064c.674 3.328.017 6.716-2.295 10.172z"/>
      <path fill="currentColor" d="M201.717 192.164l26.293-47.614 14.94 8.25-26.293 47.615zM167.4 269.257l17.064-34.13 15.264 7.632-17.065 34.13z"/>
      <path fill="currentColor" d="M98.251 247.467h76.8v17.067h-76.8zM354.473 138.467l16.615-3.863L456.42 501.55l-16.615 3.864zM132.384 102.4h93.867v17.067h-93.867z"/>
    </symbol>
    <symbol id="icon-ski" viewBox="0 0 512 512">
      <path fill="currentColor" d="M506.264 414.938a7.758 7.758 0 0 0-1.544-.248 7.652 7.652 0 0 0-3.655.69 7.702 7.702 0 0 0-4.247 5.033l-.001.003c-2.795 10.496-13.605 16.761-24.104 13.968L340.329 399.15c2.059-.917 3.71-2.7 4.334-5.046a7.722 7.722 0 0 0-5.475-9.446l-36.752-9.782.591-2.219a7.722 7.722 0 0 0-2.117-7.557l-22.735-21.807 17.979-27.827a7.718 7.718 0 0 0-3.561-11.334l-1.867-.764 34.781-54.977c9.328-14.742 5.578-34.323-8.536-44.578l-23.962-17.409 34.916 12.89 9.472 58.941a7.721 7.721 0 0 0 8.658 6.425l82.706-11.198a7.728 7.728 0 0 0 1.708-.442l24.487-3.609a7.718 7.718 0 0 0 6.334-5.652l8.912-33.486a7.72 7.72 0 0 0-8.61-9.62l-22.288 3.357a7.705 7.705 0 0 0-2.237-1.293l-62.172-22.952-1.405-13.773 45.518-1.918a7.716 7.716 0 0 0 6.512-4.128l19.816-37.807a7.715 7.715 0 0 0 5.24-4.061c12.766-25.325 2.716-56.641-22.404-69.808-25.527-13.38-57.182-3.496-70.561 22.03a52.107 52.107 0 0 0-4.213 37.706 52.79 52.79 0 0 0 1.411 4.472c-34.21-12.958-66.675-18.391-96.617-16.106-22.519 1.718-43.113 7.668-61.282 17.686l-81.93-30.247a7.717 7.717 0 0 0-10.133 5.256L99.9 107.653a7.719 7.719 0 0 0 4.786 9.227l57.162 21.103a45.892 45.892 0 0 0-17.569 26.513c-5.691 24.012 9.436 48.805 33.722 55.268l63.133 16.804-23.4 41.62a9.362 9.362 0 0 0-.713.025 7.72 7.72 0 0 0-6.984 5.72l-16.492 61.961-22.561-6.005a7.718 7.718 0 0 0-8.227 11.998L14.819 312.511a7.721 7.721 0 0 0-9.446 5.474L.261 337.192a7.722 7.722 0 0 0 5.474 9.446L463.63 468.512a35.023 35.023 0 0 0 9.03 1.186c15.536-.001 29.785-10.399 33.966-26.105l5.112-19.207a7.72 7.72 0 0 0-5.474-9.448zm-54.007-197.262l-4.578 17.202-13.701 2.019-2.86-16.037 21.139-3.184zM283.561 369.851l-45.316-12.061-4.228-1.125 14.307-53.752c7.095 2.793 18.369 7.338 29.811 11.994l-16.384 25.358a7.72 7.72 0 0 0 1.14 9.761l20.67 19.825zm124.995-161.2l-7.458 1.201-24.036-8.873-.419-4.109 31.913 11.781zm5.36-59.811l-41.992 1.769-1.635-16.037a52.051 52.051 0 0 0 5.268 3.897 7.698 7.698 0 0 0 4.18 1.231 7.708 7.708 0 0 0 5.513-2.314l24.366-24.836 20.185 5.987-15.885 30.303zM371.29 77.469c6.576-12.545 19.414-19.728 32.683-19.728a36.602 36.602 0 0 1 17.036 4.203c15.784 8.273 23.124 26.714 18.148 43.263l-29.606-8.782a7.723 7.723 0 0 0-7.705 1.995l-22.849 23.289c-12.206-11.096-15.635-29.114-7.707-44.24zm-17.112 51.307l9.632 94.444a7.716 7.716 0 0 0 2.979 5.34 7.713 7.713 0 0 0 5.929 1.499l28.758-4.631.031-.005 9.834-1.583 4.505-.678 2.852 15.989-8.019 1.182-59.232 8.02-8.97-55.818-.008-.054-4.591-28.568a7.71 7.71 0 0 0-8.848-6.397 7.692 7.692 0 0 0-5.221 3.391l-106.652-39.374c27.277-11.022 72.807-18.338 137.021 7.243zm-237.545-23.943l.959-3.6 77.357 28.558.017.006 129.473 47.798.675 4.203-208.481-76.965zm65.349 100.013c-16.284-4.332-26.454-20.835-22.673-36.787 2.406-10.156 9.716-18.308 19.552-21.805a7.692 7.692 0 0 0 2.162-1.192l61.13 22.568a7.677 7.677 0 0 0 2.216 2.52l63.529 46.154c7.546 5.483 9.55 15.952 4.564 23.833l-36.256 57.308a2274.936 2274.936 0 0 0-18.107-7.296l22.174-39.436a15.142 15.142 0 0 0 .757-13.392 15.14 15.14 0 0 0-10.123-8.804l-88.925-23.671zm72.742 39.067a15.373 15.373 0 0 0 1.39-3.357l10.572 2.814-23.404 41.628a6.853 6.853 0 0 0-.709.017 7.706 7.706 0 0 0-3.473 1.075 1172.846 1172.846 0 0 0-6.565-2.711l22.189-39.466zm-31.944 52.194a1081.82 1081.82 0 0 1 10.263 4.192l-13.946 52.395-10.626-2.828 14.309-53.759zM467.6 453.592L17.167 333.703l1.141-4.288 450.434 119.888a34.91 34.91 0 0 0 16.55.365c-4.747 3.955-11.275 5.629-17.692 3.924z"/>
    </symbol>
    <symbol id="icon-mountain" viewBox="0 -34 512.004 512">
      <path fill="currentColor" d="M85.332 401.07c-1.773 0-3.531-.093-5.246-.273-14.149-1.504-26.41-9.711-32.82-21.965-6.196-11.844-6.082-25.883.3-37.531l30.293-55.27c2.993-5.469 11.973-5.469 14.965 0l30.293 55.27c6.383 11.648 6.496 25.687.301 37.531-6.41 12.254-18.68 20.461-32.813 21.965-1.738.18-3.496.273-5.273.273zm0-93.175L62.523 349.5c-3.687 6.734-3.746 14.543-.144 21.422 3.812 7.285 10.922 11.988 19.488 12.902 2.262.238 4.66.238 6.938 0 8.562-.906 15.668-5.61 19.484-12.902 3.602-6.879 3.54-14.688-.144-21.422zm0 0"/>
      <path fill="currentColor" d="M85.332 443.734a8.532 8.532 0 0 1-8.531-8.53v-68.27c0-4.707 3.82-8.532 8.531-8.532s8.535 3.825 8.535 8.532v68.27c0 4.71-3.824 8.53-8.535 8.53zm0 0M426.668 401.07c-1.777 0-3.535-.093-5.25-.273-14.148-1.504-26.41-9.711-32.82-21.965-6.196-11.844-6.082-25.883.3-37.531l30.293-55.27c2.997-5.469 11.973-5.469 14.97 0l30.292 55.27c6.383 11.648 6.492 25.687.297 37.531-6.406 12.254-18.68 20.461-32.809 21.965-1.742.18-3.5.273-5.273.273zm0-93.175L403.855 349.5c-3.683 6.734-3.746 14.543-.144 21.422 3.816 7.285 10.922 11.988 19.492 12.902 2.262.238 4.66.238 6.938 0 8.558-.906 15.668-5.61 19.48-12.902 3.602-6.879 3.543-14.688-.144-21.422zm0 0"/>
      <path fill="currentColor" d="M426.668 443.734c-4.711 0-8.535-3.82-8.535-8.53v-68.27c0-4.707 3.824-8.532 8.535-8.532 4.71 0 8.531 3.825 8.531 8.532v68.27c0 4.71-3.82 8.53-8.531 8.53zm0 0M187.734 418.137c-1.777 0-3.535-.094-5.25-.274-14.148-1.504-26.41-9.71-32.816-21.965-6.195-11.843-6.086-25.882.297-37.53l30.293-55.27c2.996-5.47 11.972-5.47 14.969 0l30.293 55.27c6.382 11.648 6.492 25.687.296 37.53-6.406 12.254-18.68 20.461-32.808 21.965-1.742.18-3.5.274-5.274.274zm0-93.176l-22.812 41.61c-3.684 6.73-3.746 14.538-.145 21.417 3.817 7.285 10.926 11.989 19.493 12.903 2.261.238 4.66.238 6.937 0 8.559-.907 15.668-5.61 19.48-12.903 3.602-6.879 3.543-14.687-.144-21.418zm0 0"/>
      <path fill="currentColor" d="M187.734 443.734c-4.71 0-8.535-3.82-8.535-8.53v-51.2c0-4.711 3.824-8.535 8.535-8.535s8.532 3.824 8.532 8.535v51.2c0 4.71-3.82 8.53-8.532 8.53zm0 0M162.133 290.137a8.515 8.515 0 0 1-6.031-2.5l-23.63-23.63a8.53 8.53 0 0 1-.847-11.077l57.766-78.77c3.214-4.387 10.547-4.387 13.761 0l69.48 94.746a8.511 8.511 0 0 1 1.192 7.805 8.519 8.519 0 0 1-5.722 5.445l-26.813 7.656a8.498 8.498 0 0 1-5.512-.28l-39.109-15.645-30.703 15.351a8.76 8.76 0 0 1-3.832.899zm34.133-34.133c1.078 0 2.152.203 3.168.605l39.96 15.98 12.22-3.487-55.348-75.47-46.547 63.481 14.105 14.106 28.63-14.32a8.513 8.513 0 0 1 3.812-.895zm0 0M315.734 221.867a8.521 8.521 0 0 1-6.035-2.5l-18.234-18.234-11.29 16.937c-3.167 4.754-11.034 4.754-14.198 0l-20.395-30.582a8.523 8.523 0 0 1 .059-9.55l37.46-54.75a8.545 8.545 0 0 1 7.016-3.72c2.918-.394 5.434 1.356 7.04 3.669l49.066 70.664a8.532 8.532 0 0 1 1.347 6.582 8.557 8.557 0 0 1-3.832 5.52l-23.465 14.667a8.61 8.61 0 0 1-4.539 1.297zm-25.601-42.664c2.254 0 4.43.887 6.035 2.5l20.8 20.805 10.122-6.324-36.899-53.145-27.21 39.774 10.085 15.136 9.97-14.949a8.478 8.478 0 0 1 6.253-3.754c.281-.035.563-.043.844-.043zm0 0"/>
      <path fill="currentColor" d="M503.465 443.734H384a8.523 8.523 0 0 1-6.879-3.488l-157.3-214.496a8.524 8.524 0 0 1-.165-9.863l63.43-92.707a8.543 8.543 0 0 1 7.012-3.72c2.922-.394 5.437 1.356 7.043 3.669L423.117 304.53a8.54 8.54 0 0 1 .477 8.969l-19.727 36c-3.687 6.734-3.738 14.543-.148 21.422 3.816 7.285 10.914 11.988 19.492 12.902 2.254.238 4.66.238 6.93 0 9.597-1.015 17.535-7.058 20.71-15.77a8.516 8.516 0 0 1 6.919-5.538 8.56 8.56 0 0 1 8.109 3.593l44.601 64.23a8.544 8.544 0 0 1 .555 8.821 8.56 8.56 0 0 1-7.57 4.574zm-115.137-17.066h98.824l-27.777-40.004c-6.793 7.832-16.488 12.961-27.453 14.121a51.38 51.38 0 0 1-10.512 0c-14.14-1.5-26.41-9.71-32.82-21.96-6.195-11.848-6.082-25.876.3-37.532l17.196-31.367-115.902-166.887-53.024 77.5zm0 0"/>
      <path fill="currentColor" d="M384 443.734H8.535a8.53 8.53 0 0 1-6.879-13.574l45.508-62.055c1.793-2.449 4.762-3.714 7.773-3.44a8.55 8.55 0 0 1 6.887 4.983c3.567 7.93 11.059 13.227 20.043 14.176 2.254.238 4.66.238 6.93 0 8.57-.906 15.668-5.61 19.484-12.894 3.598-6.88 3.547-14.688-.148-21.418l-17.637-32.18a8.527 8.527 0 0 1 .606-9.148l98.277-134.024c3.219-4.387 10.547-4.387 13.766 0l187.734 256a8.533 8.533 0 0 1 .734 8.899 8.534 8.534 0 0 1-7.613 4.675zM25.371 426.668h341.785l-170.89-233.035-88.184 120.25 15.027 27.418c6.383 11.656 6.496 25.687.301 37.531-6.41 12.254-18.68 20.453-32.812 21.953a51.38 51.38 0 0 1-10.512 0c-10.367-1.098-19.574-5.7-26.3-12.86zm0 0M230.398 102.402c-4.707 0-8.53-3.824-8.53-8.535 0-9.41-7.657-17.066-17.067-17.066-4.711 0-8.535-3.82-8.535-8.531s3.824-8.536 8.535-8.536c9.078 0 17.34 3.567 23.465 9.371 8.738-15.753 25.55-26.437 44.8-26.437 4.711 0 8.536 3.824 8.536 8.535s-3.825 8.531-8.536 8.531c-18.824 0-34.132 15.309-34.132 34.133 0 4.711-3.825 8.535-8.536 8.535zm0 0M477.867 93.867h-85.332c-18.828 0-34.137-15.308-34.137-34.133 0-19.976 17.606-36.043 37.618-33.945C402.645 10.445 417.953.004 435.199.004s32.555 10.441 39.188 25.785C494.422 23.7 512 39.758 512 59.734c0 18.825-15.309 34.133-34.133 34.133zm-85.332-51.199c-9.414 0-17.07 7.656-17.07 17.066 0 9.414 7.656 17.067 17.07 17.067h85.332c9.41 0 17.067-7.653 17.067-17.067 0-11.406-11.418-20.418-23.204-15.863a8.57 8.57 0 0 1-7.183-.476 8.543 8.543 0 0 1-4.266-5.805c-2.383-11.887-12.93-20.52-25.082-20.52-12.152 0-22.699 8.633-25.086 20.52a8.537 8.537 0 0 1-4.27 5.805 8.569 8.569 0 0 1-7.183.476c-2.055-.8-4.12-1.203-6.125-1.203zm0 0M119.465 162.137H34.133C15.309 162.137 0 146.828 0 128.004c0-19.977 17.598-36.082 37.613-33.95 6.633-15.34 21.942-25.784 39.188-25.784 17.246 0 32.554 10.445 39.183 25.785 20.028-2.133 37.618 13.972 37.618 33.949 0 18.824-15.309 34.133-34.137 34.133zm-85.332-51.203c-9.41 0-17.067 7.656-17.067 17.07 0 9.41 7.657 17.066 17.067 17.066h85.332c9.414 0 17.07-7.656 17.07-17.066 0-11.418-11.418-20.414-23.203-15.867a8.607 8.607 0 0 1-7.187-.477 8.568 8.568 0 0 1-4.266-5.8C99.5 93.972 88.953 85.335 76.8 85.335c-12.153 0-22.7 8.637-25.09 20.523a8.522 8.522 0 0 1-4.266 5.801 8.542 8.542 0 0 1-7.183.477c-2.059-.801-4.125-1.203-6.13-1.203zm0 0"/>
    </symbol>
  </defs>
</svg>