<svg xmlns="http://www.w3.org/2000/svg" viewBox="0 0 63.363 27.411" height="103.6" width="239.484">
  <path fill="#73694c" d="M60.626 19.747c-2.024 1.442-5.019.864-6.809-.663-1.334-1.136-.636-2.747.61-3.504 1.022-.62 2.342-.33 3.329.186 1.327.695.924 2.063-.037 2.78-.326.24-.724.365-1.12.409a43.857 43.857 0 0 0-.411-.04c-.86-.356-.804-.78.17-1.276.178.406.783.055.6-.351-.754-1.67-3.116.417-1.706 1.773 1.41 1.359 3.69-.027 4.07-1.684.556-2.424-3.256-3.357-4.891-2.584-2.14 1.01-2.375 2.9-1.326 4.363-.631-.234-1.31-.07-1.464.773-.075.414.545.596.637.177.252-1.16 1.078.603.41 1.266-.54.536-1.39.752-2.097.97-1.121.345-2.301.397-3.463.323-2.495-.159-4.837-1.4-6.868-2.772-1.248-.843-2.369-1.81-3.426-2.843 1.662-1.375 3.396-2.847 5.242-4.09 2.253.85 4.611 1.46 6.866 1.782 2.903.415 5.902-.158 8.083-2.228a3.633 3.633 0 0 0 1.045-1.749c1.684.525 3.21 1.43 4.094 3.054 1.115 2.05.267 4.643-1.538 5.928m-28.638.666a13.644 13.644 0 0 0-1.69-1.949 30.805 30.805 0 0 0-1.97-1.693c1.248-1.176 2.44-2.428 3.667-3.667 1.228 1.294 2.407 2.611 3.642 3.87-1.322 1.044-2.605 2.161-3.65 3.439m.445 2.225c.43 1.071.649 3.91-1.04 4.108-1.773.207-.58-3.272-.311-3.846.222-.472.5-.915.814-1.335.204.344.386.7.537 1.073m-9.326-2.735c-2.466 1.362-5.254 2.085-8.058 2.23a13.171 13.171 0 0 1-3.016-.214 6.648 6.648 0 0 1-1.623-.522 2.772 2.772 0 0 1-.714-.502c-.63-.574-.467-1.037.49-1.387.057.343.647.264.61-.083-.07-.653-.587-1.054-1.14-.923a4.88 4.88 0 0 0 .91-1.956c.616-3.016-4.512-3.147-4.9-.248-.326 2.42 3.98 1.268 2.484-.507-.149-.176-.462.063-.321.247.744.978-1.918 2.238-1.599 0 .107-.744 1.04-1.149 1.642-1.326 1.291-.382 2.251.865 1.998 2.074-.124.588-.576 1.183-.951 1.628-1.662 1.971-4.662 2.151-6.608.56-1.797-1.472-1.95-4.123-.934-6.062C2.491 10.78 4.929 9.975 7.19 9.793c.012.48.094.954.26 1.396.92 2.444 4.231 3.57 6.532 4.02 2.74.538 5.659-.266 8.248-1.426a38.28 38.28 0 0 1 4.761 2.976l.223.164c-1.265 1.126-2.608 2.154-4.108 2.98M12.444 6.192c1.78.36 3.356 2.251 3.159 4.032a36.926 36.926 0 0 0-1.786-.485.345.345 0 0 0 .132-.126c.46-.752.15-1.412-.584-1.802-.747-.396-1.648.25-2.151.744a2.503 2.503 0 0 0-.456.605 19.778 19.778 0 0 0-2.828-.182c.318-2.077 2.52-3.192 4.514-2.786m.503 6.923c1.654.459 2.682-.62 3.101-1.973 1.921.635 3.777 1.434 5.487 2.279-3.357 1.38-7.001 1.687-10.48.087-1.575-.724-3.026-1.945-3.157-3.753a19.337 19.337 0 0 1 2.627.122c-.186 1.39 1.007 2.846 2.422 3.238m2.474-2.174c-.114.28-.282.55-.508.805-1.194 1.34-3.065.368-3.618-1.042a1.216 1.216 0 0 1-.04-.729c1.395.204 2.793.54 4.166.966m-2.04-1.305a30.42 30.42 0 0 0-1.81-.358c.05-.073.102-.145.155-.212l.204-.204c.46-.502.935-.367 1.428.405a.31.31 0 0 0 .022.37m2.687-4.667c.82-.204 1.673-.2 2.51-.158 1.633.079 3.234.71 4.68 1.422 1.661.819 3.223 1.873 4.675 3.048-1.636 1.48-3.485 2.781-5.455 3.722a41.54 41.54 0 0 0-2.784-1.31 38.5 38.5 0 0 0-3.481-1.284c.1-.683.058-1.38-.124-1.946a4.052 4.052 0 0 0-.943-1.566c.452-.078.937-.33 1.187-.574.208-.206-.077-.6-.318-.415-.933.72-.593-.777.053-.939m14.246 6.428c.42.405.829.818 1.231 1.234-1.226 1.264-2.44 2.544-3.722 3.736a35.898 35.898 0 0 0-4.688-3.008c.38-.189.754-.382 1.116-.577 1.538-.831 2.92-1.893 4.159-3.104a37.24 37.24 0 0 1 1.904 1.719m1.32-5.628c.93 1.314 2.196 2.484 3.47 3.445-1.033.884-2.013 1.84-2.973 2.818a40.645 40.645 0 0 0-2.32-2.303 38.276 38.276 0 0 0-.78-.682 25.614 25.614 0 0 0 2.602-3.278m.607-4.344c.059.506-.021 1.042-.1 1.538-.088.56-.198 1.175-.394 1.728-.577-.93-.969-1.933-1.028-2.977C30.62.02 32.12.41 32.24 1.426m4.026 15.06c-1.266-1.285-2.457-2.644-3.683-3.97.485-.482.977-.959 1.482-1.426a64.713 64.713 0 0 1 1.621-1.45c.408.287.813.556 1.2.797a29.367 29.367 0 0 0 4.414 2.22c-.944.678-1.866 1.403-2.792 2.12-.723.559-1.484 1.124-2.242 1.708m4.97-10.64c1.295-.621 2.678-1.029 4.085-1.287.576-.106 1.152-.18 1.737-.216.36-.015.719.008 1.076.07 1.22.188 1.094 2.25-.036 1.519-.231-.149-.468.182-.287.372.323.335.676.38.984.255a4.522 4.522 0 0 0-1.488 3.052c-1.847.469-3.502 1.344-5.074 2.397-2.063-.772-4.06-1.698-5.905-2.908 1.517-1.257 3.123-2.4 4.907-3.255m9.576.442c2.103-.748 4.824.008 6.083 1.868.358.527.525 1.03.546 1.506-1.325-.336-2.738-.487-4.132-.524-.698-1.357-2.761-1.936-3.61-.161a.39.39 0 0 0-.035.273l-.531.044c-.385.036-.757.095-1.125.164.131-1.483 1.491-2.702 2.804-3.17m-.354 3.673c.073.032.15.062.239.09a.312.312 0 0 0 .368-.119c.605-.014 1.214 0 1.82.033.001.298-.109.594-.247.857-.449.856-1.495 1.35-2.415 1.428-1.235.105-1.965-.91-2.17-1.994l.08-.02a16.734 16.734 0 0 1 2.325-.275m1.414-1.357c.29.125.513.303.685.523-.572 0-1.136.017-1.684.044-.032-.628.298-.82 1-.567m-4.526 1.819c.11.697.419 1.363.977 1.908 1.487 1.453 4.38.327 5.07-1.441.118-.302.162-.598.151-.88.821.064 1.634.16 2.418.282.45.069.9.155 1.344.263-.544 1.568-2.615 2.716-4.164 3.189-2.904.886-6.204-.142-8.977-1.056-.364-.12-.726-.244-1.086-.37 1.353-.823 2.77-1.494 4.267-1.895m13.7.908c-.832-.652-1.81-1.12-2.865-1.457-.008-1.255-.664-2.515-1.751-3.379-1.883-1.495-4.717-1.604-6.802-.517a4.313 4.313 0 0 0-.352.211c.619-.766.613-2.284-1.434-2.396-4.56-.25-8.705 2.139-12.117 4.906l-.016-.011c-1.292-.911-2.698-2.125-3.7-3.6.735-1.171 1.213-3.585.401-4.732-.307-.434-1.028-.442-1.444-.17-.913.599-.87 1.635-.68 2.615.179.926.585 1.812 1.13 2.646a26.153 26.153 0 0 1-2.83 3.228c-3.118-2.571-6.967-4.776-11.038-4.629-1.346.049-3.208.33-3.405 1.915-.007.055-.005.1-.007.15-1.236-.724-2.804-.935-4.155-.539-1.55.455-2.517 1.896-2.742 3.433-3.357.2-6.197 1.57-7.091 5.217-.711 2.892 1.246 5.735 4.033 6.428 1.56.388 3.235-.124 4.49-1.134-.244.761.106 1.633.828 2.143 3.262 2.308 8.796 1.158 12.137-.262 2.362-1.003 4.306-2.453 6.104-4.083 1.396 1.053 2.798 2.25 3.794 3.688a10.559 10.559 0 0 0-1.393 2.544c-.347.931-.622 2.53.173 3.34.545.557 1.398.75 2.039.196 1.934-1.676 1.271-4.103.015-6.1 1.033-1.19 2.34-2.197 3.516-3.15l.334-.272c1.333 1.316 2.75 2.553 4.385 3.607 3.551 2.29 8.063 3.321 11.982 1.32.711-.362 1.721-1.444 1.505-2.355.182.131.377.255.587.367 2.4 1.272 5.814 1.043 7.551-1.235 1.949-2.556 1.285-6.005-1.182-7.933" />
</svg>